<svg width="30.000000" height="30.000000" viewBox="0 0 30 30" fill="none" xmlns="http://www.w3.org/2000/svg" xmlns:xlink="http://www.w3.org/1999/xlink">
	<desc>
			Created with Pixso.
	</desc>
	<defs>
		<clipPath id="clip137_1763">
			<rect id="mic_FILL0_wght400_GRAD0_opsz24 1" width="30.179356" height="30.180155" transform="translate(-0.636841 -0.354492)" fill="white" fill-opacity="0"/>
		</clipPath>
	</defs>
	<rect id="mic_FILL0_wght400_GRAD0_opsz24 1" width="30.179356" height="30.180155" transform="translate(-0.636841 -0.354492)" fill="#FFFFFF" fill-opacity="0"/>
	<g clip-path="url(#clip137_1763)">
		<path id="Vector" d="M14.49 17.22C13.44 17.22 12.55 16.85 11.81 16.12C11.08 15.38 10.71 14.49 10.71 13.45L10.71 5.9C10.71 4.85 11.08 3.96 11.81 3.23C12.55 2.5 13.44 2.13 14.49 2.13C15.53 2.13 16.42 2.5 17.16 3.23C17.89 3.96 18.26 4.85 18.26 5.9L18.26 13.45C18.26 14.49 17.89 15.38 17.16 16.12C16.42 16.85 15.53 17.22 14.49 17.22ZM13.23 24.76L13.23 22.15C11.3 21.88 9.65 21.06 8.28 19.7C6.9 18.34 6.07 16.68 5.78 14.74C5.74 14.38 5.83 14.08 6.06 13.82C6.29 13.57 6.59 13.45 6.94 13.45C7.3 13.45 7.6 13.57 7.84 13.81C8.08 14.05 8.24 14.35 8.32 14.7C8.62 16.17 9.35 17.38 10.51 18.32C11.67 19.26 13 19.73 14.49 19.73C16 19.73 17.33 19.26 18.48 18.3C19.63 17.35 20.35 16.15 20.65 14.7C20.73 14.35 20.89 14.05 21.14 13.81C21.38 13.57 21.67 13.45 22.03 13.45C22.39 13.45 22.68 13.57 22.91 13.82C23.14 14.08 23.24 14.38 23.19 14.74C22.9 16.64 22.07 18.29 20.71 19.67C19.35 21.05 17.69 21.88 15.74 22.15L15.74 24.76C15.74 25.12 15.62 25.42 15.38 25.66C15.14 25.9 14.84 26.02 14.49 26.02C14.13 26.02 13.83 25.9 13.59 25.66C13.35 25.42 13.23 25.12 13.23 24.76ZM14.49 14.7C14.84 14.7 15.14 14.58 15.38 14.34C15.62 14.1 15.74 13.8 15.74 13.45L15.74 5.9C15.74 5.54 15.62 5.25 15.38 5.01C15.14 4.76 14.84 4.64 14.49 4.64C14.13 4.64 13.83 4.76 13.59 5.01C13.35 5.25 13.23 5.54 13.23 5.9L13.23 13.45C13.23 13.8 13.35 14.1 13.59 14.34C13.83 14.58 14.13 14.7 14.49 14.7Z" fill="#FFFFFF" fill-opacity="1.000000" fill-rule="nonzero"/>
	</g>
</svg>
