<svg width="17.000000" height="18.000000" viewBox="0 0 17 18" fill="none" xmlns="http://www.w3.org/2000/svg" xmlns:xlink="http://www.w3.org/1999/xlink">
	<desc>
			Created with Pixso.
	</desc>
	<defs/>
	<path id="Vector" d="M8.02 15.73C7 16.75 5.77 17.26 4.34 17.26C2.9 17.26 1.67 16.75 0.65 15.73C-0.37 14.71 -0.88 13.48 -0.88 12.04C-0.88 10.61 -0.37 9.38 0.65 8.36L2.86 6.15C3.07 5.94 3.32 5.83 3.6 5.83C3.88 5.83 4.13 5.94 4.34 6.15C4.55 6.36 4.65 6.6 4.65 6.88C4.65 7.17 4.55 7.41 4.34 7.62L2.13 9.83C1.51 10.45 1.2 11.18 1.2 12.04C1.2 12.9 1.51 13.64 2.13 14.25C2.74 14.87 3.48 15.17 4.34 15.17C5.2 15.17 5.93 14.87 6.55 14.25L8.76 12.04C8.97 11.83 9.21 11.73 9.5 11.73C9.78 11.73 10.02 11.83 10.23 12.04C10.44 12.25 10.55 12.5 10.55 12.78C10.55 13.06 10.44 13.31 10.23 13.52L8.02 15.73ZM6.55 11.3C6.34 11.51 6.09 11.62 5.81 11.62C5.53 11.62 5.28 11.51 5.07 11.3C4.86 11.1 4.76 10.85 4.76 10.57C4.76 10.29 4.86 10.04 5.07 9.83L9.5 5.41C9.7 5.2 9.95 5.1 10.23 5.1C10.51 5.1 10.76 5.2 10.97 5.41C11.18 5.62 11.28 5.86 11.28 6.15C11.28 6.43 11.18 6.67 10.97 6.88L6.55 11.3ZM13.18 10.57C12.97 10.78 12.73 10.88 12.44 10.88C12.16 10.88 11.91 10.78 11.71 10.57C11.5 10.36 11.39 10.11 11.39 9.83C11.39 9.55 11.5 9.3 11.71 9.09L13.92 6.88C14.53 6.27 14.84 5.53 14.84 4.67C14.84 3.81 14.53 3.08 13.92 2.46C13.3 1.85 12.57 1.54 11.71 1.54C10.85 1.54 10.11 1.85 9.5 2.46L7.28 4.67C7.08 4.88 6.83 4.99 6.55 4.99C6.26 4.99 6.02 4.88 5.81 4.67C5.6 4.46 5.5 4.22 5.5 3.94C5.5 3.65 5.6 3.41 5.81 3.2L8.02 0.99C9.04 -0.03 10.27 -0.54 11.71 -0.54C13.14 -0.54 14.37 -0.03 15.39 0.99C16.41 2.01 16.92 3.24 16.92 4.67C16.92 6.11 16.41 7.34 15.39 8.36L13.18 10.57Z" fill="#777777" fill-opacity="1.000000" fill-rule="nonzero"/>
</svg>
